<?xml version="1.0" encoding="utf-8"?>
<!-- Generator: Adobe Illustrator 16.0.0, SVG Export Plug-In . SVG Version: 6.00 Build 0)  -->
<!DOCTYPE svg PUBLIC "-//W3C//DTD SVG 1.1//EN" "http://www.w3.org/Graphics/SVG/1.1/DTD/svg11.dtd">
<svg version="1.1" id="Layer_1" xmlns="http://www.w3.org/2000/svg" xmlns:xlink="http://www.w3.org/1999/xlink" x="0px" y="0px"
	 width="461px" height="165px" viewBox="0 0 461 165" enable-background="new 0 0 461 165" xml:space="preserve">
<g>
	<path d="M178.952,59.212h-20.218v14.6h23.455V80h-31.167V33.79h30.944v6.189h-23.232v13.044h20.218V59.212z"/>
	<path d="M216.625,59.212h-20.217v14.6h23.455V80h-31.168V33.79h30.945v6.189h-23.232v13.044h20.217V59.212z"/>
	<path d="M234.082,73.812h21.232V80h-28.945V33.79h7.713V73.812z"/>
	<path d="M286.576,68.095c0-1.917-0.713-3.486-2.143-4.708c-1.428-1.222-3.951-2.317-7.568-3.287
		c-5.164-1.354-9.137-3.147-11.918-5.379c-2.783-2.232-4.174-5.158-4.174-8.776c0-3.724,1.539-6.792,4.617-9.204
		c3.08-2.412,7.052-3.618,11.918-3.618c5.078,0,9.156,1.37,12.236,4.11c3.078,2.741,4.564,6.025,4.459,9.855l-0.064,0.19h-7.395
		c0-2.37-0.805-4.29-2.412-5.76c-1.608-1.471-3.904-2.206-6.887-2.206c-2.814,0-4.979,0.612-6.49,1.837
		c-1.514,1.225-2.27,2.808-2.27,4.75c0,1.752,0.819,3.209,2.459,4.37c1.64,1.162,4.354,2.259,8.141,3.293
		c4.973,1.333,8.75,3.174,11.331,5.522s3.872,5.343,3.872,8.982c0,3.851-1.539,6.914-4.617,9.188
		c-3.08,2.274-7.126,3.412-12.141,3.412c-4.824,0-9.057-1.286-12.695-3.856c-3.64-2.571-5.406-6.078-5.301-10.521l0.064-0.19h7.426
		c0,2.814,0.974,4.915,2.92,6.3c1.947,1.386,4.476,2.079,7.586,2.079c2.856,0,5.078-0.574,6.665-1.722
		S286.576,70.055,286.576,68.095z"/>
	<path d="M308.228,80V57.961h6.403c2.693,0,4.919,0.898,6.675,2.694c1.756,1.796,2.634,4.102,2.634,6.917v2.831
		c0,2.826-0.878,5.131-2.634,6.917S317.324,80,314.631,80H308.228z M310.029,59.505v18.951h4.602c2.18,0,3.973-0.761,5.381-2.284
		c1.408-1.523,2.111-3.449,2.111-5.778v-2.874c0-2.299-0.707-4.209-2.119-5.732c-1.413-1.523-3.204-2.284-5.373-2.284H310.029z"/>
	<path d="M338.44,80c-0.121-0.555-0.207-1.034-0.257-1.438c-0.051-0.403-0.076-0.812-0.076-1.226
		c-0.605,0.858-1.413,1.569-2.422,2.134c-1.01,0.565-2.145,0.848-3.406,0.848c-1.594,0-2.832-0.424-3.715-1.271
		c-0.884-0.848-1.325-1.983-1.325-3.406c0-1.514,0.653-2.725,1.96-3.633s3.07-1.362,5.291-1.362h3.617v-2.028
		c0-1.17-0.376-2.089-1.127-2.755c-0.752-0.666-1.805-0.999-3.156-0.999c-1.262,0-2.309,0.318-3.141,0.954
		c-0.834,0.636-1.25,1.413-1.25,2.331l-1.664-0.015l-0.031-0.091c-0.061-1.221,0.498-2.313,1.674-3.277
		c1.175-0.963,2.671-1.445,4.487-1.445c1.806,0,3.259,0.459,4.359,1.377c1.1,0.918,1.649,2.235,1.649,3.951v8.053
		c0,0.575,0.033,1.135,0.1,1.68c0.064,0.545,0.174,1.085,0.324,1.62H338.44z M332.492,78.714c1.301,0,2.451-0.305,3.451-0.916
		c0.998-0.611,1.72-1.39,2.164-2.339v-3.421h-3.648c-1.645,0-2.959,0.351-3.943,1.052c-0.982,0.702-1.475,1.572-1.475,2.611
		c0,0.888,0.305,1.612,0.916,2.172C330.566,78.434,331.412,78.714,332.492,78.714z"/>
	<path d="M347.583,59.43v4.193h3.603v1.483h-3.603v10.671c0,1.07,0.194,1.829,0.583,2.278c0.389,0.449,0.905,0.674,1.551,0.674
		c0.293,0,0.578-0.013,0.855-0.038c0.277-0.025,0.598-0.068,0.961-0.128l0.273,1.347c-0.303,0.131-0.672,0.232-1.105,0.303
		c-0.434,0.07-0.868,0.106-1.302,0.106c-1.15,0-2.046-0.363-2.687-1.09s-0.961-1.877-0.961-3.451V65.106h-2.831v-1.483h2.831V59.43
		H347.583z"/>
	<path d="M365.398,80c-0.121-0.555-0.207-1.034-0.257-1.438c-0.051-0.403-0.075-0.812-0.075-1.226
		c-0.605,0.858-1.414,1.569-2.422,2.134c-1.01,0.565-2.145,0.848-3.406,0.848c-1.595,0-2.833-0.424-3.716-1.271
		c-0.884-0.848-1.325-1.983-1.325-3.406c0-1.514,0.654-2.725,1.961-3.633s3.07-1.362,5.29-1.362h3.618v-2.028
		c0-1.17-0.377-2.089-1.128-2.755c-0.752-0.666-1.804-0.999-3.156-0.999c-1.262,0-2.309,0.318-3.141,0.954
		c-0.833,0.636-1.249,1.413-1.249,2.331l-1.665-0.015l-0.03-0.091c-0.061-1.221,0.497-2.313,1.673-3.277
		c1.175-0.963,2.671-1.445,4.487-1.445c1.807,0,3.26,0.459,4.359,1.377c1.1,0.918,1.65,2.235,1.65,3.951v8.053
		c0,0.575,0.033,1.135,0.099,1.68s0.174,1.085,0.325,1.62H365.398z M359.45,78.714c1.302,0,2.452-0.305,3.451-0.916
		c0.999-0.611,1.72-1.39,2.165-2.339v-3.421h-3.648c-1.645,0-2.959,0.351-3.943,1.052c-0.983,0.702-1.476,1.572-1.476,2.611
		c0,0.888,0.306,1.612,0.916,2.172C357.525,78.434,358.37,78.714,359.45,78.714z"/>
	<path d="M379.732,80V57.961h6.434c2.291,0,4.074,0.482,5.352,1.446c1.275,0.964,1.914,2.416,1.914,4.354
		c0,1.131-0.32,2.115-0.961,2.953c-0.641,0.838-1.512,1.418-2.611,1.742c1.342,0.242,2.432,0.873,3.27,1.891
		c0.838,1.019,1.256,2.194,1.256,3.525c0,1.967-0.637,3.48-1.914,4.539S389.486,80,387.348,80H379.732z M381.535,67.846h5.07
		c1.594,0,2.828-0.351,3.701-1.052c0.873-0.701,1.309-1.733,1.309-3.095c0-1.393-0.463-2.439-1.393-3.141
		c-0.928-0.701-2.279-1.052-4.057-1.052h-4.631V67.846z M381.535,69.39v9.067h5.812c1.625,0,2.9-0.4,3.828-1.199
		c0.93-0.799,1.393-1.918,1.393-3.357c0-1.317-0.42-2.399-1.264-3.244c-0.842-0.845-2.066-1.267-3.67-1.267H381.535z"/>
	<path d="M408.811,80c-0.121-0.555-0.207-1.034-0.258-1.438c-0.051-0.403-0.074-0.812-0.074-1.226
		c-0.605,0.858-1.414,1.569-2.422,2.134c-1.01,0.565-2.145,0.848-3.406,0.848c-1.596,0-2.834-0.424-3.717-1.271
		s-1.324-1.983-1.324-3.406c0-1.514,0.652-2.725,1.961-3.633c1.307-0.908,3.07-1.362,5.289-1.362h3.619v-2.028
		c0-1.17-0.377-2.089-1.129-2.755s-1.803-0.999-3.156-0.999c-1.262,0-2.309,0.318-3.141,0.954s-1.248,1.413-1.248,2.331
		l-1.666-0.015l-0.029-0.091c-0.061-1.221,0.496-2.313,1.672-3.277c1.176-0.963,2.672-1.445,4.488-1.445
		c1.807,0,3.26,0.459,4.359,1.377c1.1,0.918,1.65,2.235,1.65,3.951v8.053c0,0.575,0.031,1.135,0.098,1.68s0.174,1.085,0.326,1.62
		H408.811z M402.861,78.714c1.303,0,2.453-0.305,3.451-0.916c1-0.611,1.721-1.39,2.166-2.339v-3.421h-3.648
		c-1.645,0-2.959,0.351-3.943,1.052c-0.984,0.702-1.477,1.572-1.477,2.611c0,0.888,0.305,1.612,0.916,2.172
		C400.938,78.434,401.781,78.714,402.861,78.714z"/>
	<path d="M424.916,75.83c0-0.765-0.314-1.435-0.945-2.009s-1.77-1.042-3.414-1.404c-1.957-0.424-3.402-0.984-4.336-1.68
		s-1.4-1.68-1.4-2.952c0-1.251,0.527-2.308,1.582-3.171c1.055-0.862,2.449-1.294,4.186-1.294c1.846,0,3.309,0.457,4.389,1.37
		c1.08,0.913,1.596,2.056,1.545,3.428l-0.031,0.091h-1.68c0-0.898-0.381-1.68-1.143-2.346s-1.789-0.999-3.08-0.999
		c-1.322,0-2.314,0.284-2.975,0.851c-0.662,0.567-0.992,1.232-0.992,1.995c0,0.753,0.285,1.376,0.855,1.868
		c0.57,0.492,1.709,0.924,3.414,1.295c1.947,0.436,3.406,1.03,4.375,1.785c0.969,0.754,1.453,1.779,1.453,3.075
		c0,1.367-0.553,2.473-1.658,3.318s-2.566,1.268-4.383,1.268c-1.988,0-3.549-0.474-4.684-1.423
		c-1.137-0.948-1.674-2.079-1.613-3.391l0.031-0.091h1.664c0.07,1.175,0.553,2.029,1.445,2.562c0.895,0.533,1.945,0.799,3.156,0.799
		c1.312,0,2.348-0.287,3.104-0.861C424.539,77.34,424.916,76.646,424.916,75.83z"/>
	<path d="M437.041,80.318c-2.049,0-3.752-0.757-5.109-2.271s-2.035-3.431-2.035-5.752v-0.833c0-2.341,0.674-4.284,2.02-5.828
		c1.348-1.544,2.98-2.316,4.898-2.316c2.008,0,3.586,0.636,4.736,1.907s1.727,2.967,1.727,5.086v1.544h-11.564v0.438
		c0,1.843,0.488,3.383,1.469,4.622c0.979,1.239,2.264,1.858,3.859,1.858c1.129,0,2.094-0.156,2.891-0.469
		c0.797-0.312,1.479-0.762,2.043-1.347l0.773,1.241c-0.617,0.648-1.396,1.164-2.34,1.546S438.342,80.318,437.041,80.318z
		 M436.814,64.864c-1.344,0-2.469,0.511-3.377,1.532s-1.438,2.302-1.588,3.841l0.029,0.076h9.598V69.86
		c0-1.418-0.42-2.606-1.258-3.562S438.246,64.864,436.814,64.864z"/>
</g>
<g>
	<path d="M153.114,103.84h-0.762v-9.243h0.762V103.84z"/>
	<path d="M156.168,96.971l0.07,1.2c0.22-0.423,0.517-0.75,0.892-0.981c0.374-0.23,0.817-0.346,1.329-0.346
		c0.745,0,1.312,0.228,1.701,0.683c0.39,0.455,0.584,1.165,0.584,2.129v4.184h-0.762v-4.186c0-0.789-0.146-1.346-0.44-1.673
		s-0.712-0.49-1.254-0.49c-0.533,0-0.968,0.141-1.305,0.423c-0.336,0.282-0.578,0.656-0.727,1.123v4.803h-0.762v-6.869H156.168z"/>
	<path d="M163.404,96.971l0.07,1.2c0.22-0.423,0.517-0.75,0.892-0.981c0.374-0.23,0.817-0.346,1.329-0.346
		c0.745,0,1.312,0.228,1.701,0.683c0.39,0.455,0.584,1.165,0.584,2.129v4.184h-0.762v-4.186c0-0.789-0.146-1.346-0.44-1.673
		s-0.712-0.49-1.254-0.49c-0.533,0-0.968,0.141-1.305,0.423c-0.336,0.282-0.578,0.656-0.727,1.123v4.803h-0.762v-6.869H163.404z"/>
	<path d="M172.545,103.973c-0.859,0-1.573-0.317-2.143-0.952s-0.854-1.438-0.854-2.412v-0.349c0-0.982,0.282-1.796,0.848-2.444
		c0.564-0.647,1.249-0.971,2.053-0.971c0.843,0,1.505,0.267,1.987,0.8s0.724,1.244,0.724,2.133v0.647h-4.85v0.184
		c0,0.773,0.205,1.419,0.615,1.938c0.411,0.52,0.95,0.779,1.619,0.779c0.474,0,0.878-0.065,1.213-0.196
		c0.334-0.132,0.619-0.32,0.856-0.565l0.323,0.521c-0.258,0.271-0.585,0.488-0.98,0.648S173.091,103.973,172.545,103.973z
		 M172.449,97.492c-0.562,0-1.034,0.214-1.415,0.643s-0.603,0.965-0.667,1.611l0.014,0.032h4.023v-0.19
		c0-0.595-0.175-1.093-0.526-1.494S173.051,97.492,172.449,97.492z"/>
	<path d="M179.825,97.625l-0.564-0.038c-0.479,0-0.871,0.134-1.178,0.403c-0.307,0.269-0.526,0.638-0.657,1.108v4.742h-0.762v-6.869
		h0.667l0.095,1.143v0.076c0.199-0.423,0.466-0.753,0.8-0.99s0.732-0.355,1.193-0.355c0.098,0,0.191,0.007,0.282,0.022
		c0.091,0.015,0.166,0.03,0.226,0.047L179.825,97.625z"/>
	<path d="M185.709,98.793c-0.343-0.423-0.597-0.809-0.762-1.159c-0.165-0.349-0.248-0.708-0.248-1.076
		c0-0.668,0.188-1.185,0.565-1.549s0.893-0.546,1.549-0.546c0.609,0,1.093,0.171,1.45,0.514s0.537,0.774,0.537,1.295
		c0,0.381-0.096,0.709-0.286,0.984s-0.466,0.55-0.825,0.825l-1.01,0.774l2.615,3.054c0.208-0.301,0.369-0.637,0.482-1.01
		c0.115-0.373,0.172-0.77,0.172-1.193h0.698c0,0.542-0.077,1.04-0.231,1.494c-0.154,0.455-0.378,0.867-0.67,1.235l1.174,1.371
		l-0.012,0.032h-0.87l-0.774-0.896c-0.359,0.33-0.753,0.584-1.181,0.762c-0.428,0.179-0.889,0.267-1.384,0.267
		c-0.885,0-1.585-0.227-2.102-0.68c-0.516-0.452-0.773-1.055-0.773-1.809c0-0.508,0.153-0.966,0.46-1.375
		c0.307-0.408,0.75-0.824,1.329-1.247L185.709,98.793z M186.699,103.325c0.39,0,0.77-0.075,1.14-0.228
		c0.37-0.15,0.703-0.367,0.999-0.648l-2.627-3.06c-0.021-0.021-0.04-0.039-0.055-0.054c-0.015-0.015-0.026-0.03-0.035-0.047
		l-0.298,0.228c-0.491,0.397-0.82,0.756-0.987,1.078s-0.25,0.617-0.25,0.887c0,0.524,0.181,0.963,0.542,1.315
		C185.49,103.148,186.014,103.325,186.699,103.325z M185.461,96.546c0,0.279,0.067,0.569,0.2,0.87c0.134,0.3,0.338,0.62,0.612,0.958
		l1.124-0.838c0.245-0.19,0.42-0.389,0.523-0.597s0.155-0.43,0.155-0.667c0-0.334-0.11-0.611-0.333-0.832
		c-0.222-0.22-0.532-0.33-0.93-0.33c-0.432,0-0.765,0.138-1,0.413C185.579,95.799,185.461,96.14,185.461,96.546z"/>
	<path d="M202.365,99.974c0,1.193-0.327,2.158-0.98,2.895c-0.654,0.736-1.531,1.104-2.632,1.104c-1.083,0-1.947-0.368-2.593-1.104
		s-0.968-1.701-0.968-2.895v-1.504c0-1.189,0.321-2.154,0.965-2.895s1.507-1.111,2.59-1.111c1.101,0,1.979,0.37,2.635,1.111
		c0.655,0.741,0.983,1.706,0.983,2.895V99.974z M201.61,98.462c0-1-0.253-1.806-0.759-2.416s-1.207-0.916-2.104-0.916
		c-0.88,0-1.565,0.305-2.057,0.916s-0.736,1.416-0.736,2.416v1.519c0,1.009,0.246,1.818,0.739,2.429
		c0.493,0.609,1.18,0.915,2.06,0.915c0.902,0,1.604-0.304,2.104-0.912c0.502-0.608,0.753-1.419,0.753-2.432V98.462z"/>
	<path d="M208.656,102.716c-0.221,0.401-0.517,0.712-0.889,0.931c-0.373,0.217-0.812,0.326-1.32,0.326
		c-0.725,0-1.291-0.246-1.701-0.736c-0.411-0.49-0.616-1.252-0.616-2.285v-3.98h0.762v4c0,0.84,0.143,1.442,0.429,1.807
		c0.285,0.364,0.69,0.547,1.215,0.547c0.576,0,1.035-0.13,1.378-0.388c0.343-0.259,0.582-0.615,0.718-1.068v-4.898h0.762v6.869
		h-0.674L208.656,102.716z"/>
	<path d="M212.585,95.213v1.758h1.511v0.622h-1.511v4.475c0,0.449,0.081,0.768,0.244,0.955c0.163,0.188,0.38,0.283,0.651,0.283
		c0.122,0,0.242-0.006,0.358-0.016c0.116-0.012,0.251-0.029,0.403-0.055l0.113,0.564c-0.127,0.055-0.281,0.098-0.463,0.127
		s-0.364,0.045-0.546,0.045c-0.482,0-0.858-0.152-1.127-0.457s-0.403-0.787-0.403-1.447v-4.475h-1.187v-0.622h1.187v-1.758H212.585z
		"/>
	<path d="M218.285,103.973c-0.859,0-1.573-0.317-2.143-0.952s-0.854-1.438-0.854-2.412v-0.349c0-0.982,0.282-1.796,0.848-2.444
		c0.564-0.647,1.249-0.971,2.053-0.971c0.843,0,1.505,0.267,1.987,0.8s0.724,1.244,0.724,2.133v0.647h-4.85v0.184
		c0,0.773,0.205,1.419,0.615,1.938c0.411,0.52,0.95,0.779,1.619,0.779c0.474,0,0.878-0.065,1.213-0.196
		c0.334-0.132,0.619-0.32,0.856-0.565l0.323,0.521c-0.258,0.271-0.585,0.488-0.98,0.648S218.831,103.973,218.285,103.973z
		 M218.189,97.492c-0.562,0-1.034,0.214-1.415,0.643s-0.603,0.965-0.667,1.611l0.014,0.032h4.023v-0.19
		c0-0.595-0.175-1.093-0.526-1.494S218.791,97.492,218.189,97.492z"/>
	<path d="M225.565,97.625l-0.564-0.038c-0.479,0-0.871,0.134-1.178,0.403c-0.307,0.269-0.526,0.638-0.657,1.108v4.742h-0.762v-6.869
		h0.667l0.095,1.143v0.076c0.199-0.423,0.466-0.753,0.8-0.99s0.732-0.355,1.193-0.355c0.098,0,0.191,0.007,0.282,0.022
		c0.091,0.015,0.166,0.03,0.226,0.047L225.565,97.625z"/>
	<path d="M235.486,101.57c0-0.504-0.188-0.914-0.564-1.233c-0.377-0.319-1.033-0.601-1.969-0.846
		c-1.011-0.254-1.777-0.584-2.297-0.99c-0.521-0.406-0.781-0.954-0.781-1.644c0-0.707,0.291-1.282,0.873-1.727
		s1.33-0.667,2.244-0.667c0.951,0,1.72,0.265,2.304,0.793s0.867,1.174,0.851,1.936l-0.02,0.038h-0.697
		c0-0.618-0.22-1.125-0.657-1.523c-0.438-0.398-1.032-0.597-1.78-0.597c-0.741,0-1.319,0.165-1.736,0.495s-0.625,0.741-0.625,1.231
		c0,0.465,0.192,0.854,0.577,1.165c0.385,0.312,1.05,0.585,1.993,0.822c0.994,0.254,1.751,0.597,2.27,1.028s0.777,1.001,0.777,1.708
		c0,0.736-0.302,1.322-0.904,1.758c-0.604,0.437-1.372,0.654-2.308,0.654c-0.923,0-1.728-0.232-2.415-0.695s-1.021-1.139-1-2.027
		l0.013-0.039h0.698c0,0.718,0.269,1.25,0.807,1.596c0.537,0.346,1.17,0.519,1.897,0.519c0.732,0,1.323-0.161,1.774-0.481
		C235.261,102.522,235.486,102.098,235.486,101.57z"/>
	<path d="M238.564,98.146c0.229-0.411,0.533-0.73,0.914-0.958s0.825-0.343,1.333-0.343c0.724,0,1.279,0.224,1.666,0.673
		c0.388,0.449,0.581,1.145,0.581,2.088v4.234h-0.762v-4.255c0-0.747-0.147-1.282-0.441-1.606c-0.294-0.325-0.699-0.487-1.216-0.487
		c-0.52,0-0.955,0.137-1.304,0.41c-0.35,0.274-0.606,0.637-0.771,1.091v4.847h-0.762v-9.903h0.762V98.146z"/>
	<path d="M247.616,103.973c-0.859,0-1.573-0.317-2.143-0.952s-0.854-1.438-0.854-2.412v-0.349c0-0.982,0.282-1.796,0.848-2.444
		c0.564-0.647,1.249-0.971,2.053-0.971c0.843,0,1.505,0.267,1.987,0.8s0.724,1.244,0.724,2.133v0.647h-4.85v0.184
		c0,0.773,0.205,1.419,0.615,1.938c0.411,0.52,0.95,0.779,1.619,0.779c0.474,0,0.878-0.065,1.213-0.196
		c0.334-0.132,0.619-0.32,0.856-0.565l0.323,0.521c-0.258,0.271-0.585,0.488-0.98,0.648S248.162,103.973,247.616,103.973z
		 M247.521,97.492c-0.562,0-1.034,0.214-1.415,0.643s-0.603,0.965-0.667,1.611l0.014,0.032h4.023v-0.19
		c0-0.595-0.175-1.093-0.526-1.494S248.122,97.492,247.521,97.492z"/>
	<path d="M252.587,103.84h-0.756v-9.903h0.756V103.84z"/>
	<path d="M255.538,103.84h-0.756v-9.903h0.756V103.84z"/>
	<path d="M266.215,99.364h-4.45v3.827h5.097v0.648h-5.852v-9.243h5.82v0.647h-5.065v3.472h4.45V99.364z"/>
	<path d="M270.448,99.777l1.86-2.806h0.9l-2.329,3.371l2.425,3.498h-0.889l-1.955-2.927l-1.955,2.927h-0.901l2.431-3.498
		l-2.329-3.371h0.896L270.448,99.777z"/>
	<path d="M277.069,103.325c0.503,0,0.947-0.144,1.332-0.431c0.386-0.286,0.578-0.684,0.578-1.194h0.673l0.013,0.038
		c0.021,0.635-0.232,1.166-0.762,1.594c-0.529,0.427-1.141,0.641-1.834,0.641c-0.936,0-1.658-0.32-2.168-0.961
		c-0.51-0.643-0.766-1.466-0.766-2.473v-0.267c0-0.999,0.257-1.82,0.769-2.463s1.231-0.965,2.158-0.965
		c0.753,0,1.381,0.222,1.882,0.667c0.502,0.444,0.744,1.028,0.727,1.752l-0.012,0.038h-0.68c0-0.55-0.186-0.989-0.556-1.317
		c-0.37-0.328-0.824-0.492-1.361-0.492c-0.736,0-1.281,0.263-1.635,0.79s-0.53,1.189-0.53,1.988v0.266
		c0,0.812,0.176,1.479,0.527,2.004C275.776,103.062,276.324,103.325,277.069,103.325z"/>
	<path d="M282.108,95.003h-0.756v-1.066h0.756V95.003z M282.108,103.84h-0.756v-6.869h0.756V103.84z"/>
	<path d="M285.402,95.213v1.758h1.511v0.622h-1.511v4.475c0,0.449,0.081,0.768,0.244,0.955c0.163,0.188,0.38,0.283,0.651,0.283
		c0.122,0,0.242-0.006,0.358-0.016c0.116-0.012,0.251-0.029,0.403-0.055l0.113,0.564c-0.127,0.055-0.281,0.098-0.463,0.127
		s-0.364,0.045-0.546,0.045c-0.482,0-0.858-0.152-1.127-0.457s-0.403-0.787-0.403-1.447v-4.475h-1.187v-0.622h1.187v-1.758H285.402z
		"/>
	<path d="M292.874,103.84c-0.051-0.233-0.087-0.434-0.108-0.604s-0.032-0.341-0.032-0.514c-0.254,0.359-0.592,0.658-1.016,0.895
		c-0.423,0.236-0.898,0.355-1.428,0.355c-0.669,0-1.188-0.178-1.559-0.533s-0.555-0.832-0.555-1.428
		c0-0.635,0.273-1.143,0.821-1.524s1.288-0.571,2.219-0.571h1.517v-0.851c0-0.491-0.157-0.876-0.473-1.155s-0.756-0.419-1.323-0.419
		c-0.529,0-0.968,0.133-1.317,0.4c-0.349,0.267-0.523,0.592-0.523,0.978l-0.698-0.006l-0.013-0.038
		c-0.025-0.512,0.208-0.97,0.701-1.374c0.493-0.404,1.121-0.606,1.883-0.606c0.757,0,1.366,0.192,1.828,0.578
		c0.461,0.385,0.691,0.938,0.691,1.657v3.376c0,0.242,0.014,0.477,0.041,0.705s0.073,0.455,0.137,0.68H292.874z M290.379,103.3
		c0.546,0,1.028-0.128,1.447-0.384s0.722-0.583,0.907-0.98V100.5h-1.529c-0.689,0-1.241,0.147-1.653,0.441
		c-0.413,0.294-0.619,0.659-0.619,1.095c0,0.372,0.128,0.676,0.384,0.91S289.926,103.3,290.379,103.3z"/>
	<path d="M296.707,95.213v1.758h1.511v0.622h-1.511v4.475c0,0.449,0.081,0.768,0.244,0.955c0.163,0.188,0.38,0.283,0.651,0.283
		c0.122,0,0.242-0.006,0.358-0.016c0.116-0.012,0.251-0.029,0.403-0.055l0.113,0.564c-0.127,0.055-0.281,0.098-0.463,0.127
		s-0.364,0.045-0.546,0.045c-0.482,0-0.858-0.152-1.127-0.457s-0.403-0.787-0.403-1.447v-4.475h-1.187v-0.622h1.187v-1.758H296.707z
		"/>
	<path d="M300.681,95.003h-0.756v-1.066h0.756V95.003z M300.681,103.84h-0.756v-6.869h0.756V103.84z"/>
	<path d="M302.356,100.304c0-1.011,0.276-1.841,0.831-2.488s1.288-0.971,2.202-0.971c0.919,0,1.655,0.324,2.209,0.971
		c0.555,0.647,0.832,1.477,0.832,2.488v0.209c0,1.016-0.276,1.846-0.828,2.491c-0.553,0.646-1.285,0.969-2.199,0.969
		c-0.923,0-1.661-0.322-2.216-0.969c-0.555-0.645-0.831-1.475-0.831-2.491V100.304z M303.118,100.51c0,0.795,0.2,1.463,0.603,2.004
		s0.963,0.812,1.683,0.812c0.706,0,1.262-0.271,1.666-0.812s0.605-1.209,0.605-2.004v-0.209c0-0.782-0.203-1.446-0.609-1.991
		s-0.965-0.818-1.676-0.818s-1.267,0.272-1.669,0.818s-0.603,1.209-0.603,1.991V100.51z"/>
	<path d="M310.69,96.971l0.07,1.2c0.22-0.423,0.517-0.75,0.892-0.981c0.374-0.23,0.817-0.346,1.329-0.346
		c0.745,0,1.312,0.228,1.701,0.683c0.39,0.455,0.584,1.165,0.584,2.129v4.184h-0.762v-4.186c0-0.789-0.146-1.346-0.44-1.673
		s-0.712-0.49-1.254-0.49c-0.533,0-0.968,0.141-1.305,0.423c-0.336,0.282-0.578,0.656-0.727,1.123v4.803h-0.762v-6.869H310.69z"/>
	<path d="M325.912,101.57c0-0.504-0.188-0.914-0.564-1.233c-0.377-0.319-1.033-0.601-1.969-0.846
		c-1.011-0.254-1.777-0.584-2.297-0.99c-0.521-0.406-0.781-0.954-0.781-1.644c0-0.707,0.291-1.282,0.873-1.727
		s1.33-0.667,2.244-0.667c0.951,0,1.72,0.265,2.304,0.793s0.867,1.174,0.851,1.936l-0.02,0.038h-0.697
		c0-0.618-0.22-1.125-0.657-1.523c-0.438-0.398-1.032-0.597-1.78-0.597c-0.741,0-1.319,0.165-1.736,0.495s-0.625,0.741-0.625,1.231
		c0,0.465,0.192,0.854,0.577,1.165c0.385,0.312,1.05,0.585,1.993,0.822c0.994,0.254,1.751,0.597,2.27,1.028s0.777,1.001,0.777,1.708
		c0,0.736-0.302,1.322-0.904,1.758c-0.604,0.437-1.372,0.654-2.308,0.654c-0.923,0-1.728-0.232-2.415-0.695s-1.021-1.139-1-2.027
		l0.013-0.039h0.698c0,0.718,0.269,1.25,0.807,1.596c0.537,0.346,1.17,0.519,1.897,0.519c0.732,0,1.323-0.161,1.774-0.481
		C325.687,102.522,325.912,102.098,325.912,101.57z"/>
	<path d="M333.757,100.596c0,1.028-0.232,1.848-0.697,2.459c-0.466,0.612-1.107,0.918-1.924,0.918c-0.482,0-0.904-0.092-1.267-0.273
		c-0.361-0.182-0.657-0.441-0.886-0.78v3.562h-0.762v-9.509h0.642l0.095,1.066c0.229-0.381,0.524-0.675,0.886-0.882
		c0.362-0.208,0.788-0.311,1.279-0.311c0.825,0,1.471,0.329,1.937,0.987c0.465,0.658,0.697,1.535,0.697,2.631V100.596z
		 M332.995,100.453c0-0.873-0.173-1.584-0.52-2.135c-0.348-0.551-0.855-0.826-1.523-0.826c-0.513,0-0.929,0.122-1.248,0.365
		s-0.56,0.561-0.721,0.95v3.304c0.174,0.377,0.425,0.674,0.753,0.89s0.737,0.324,1.228,0.324c0.665,0,1.17-0.25,1.515-0.75
		c0.345-0.499,0.517-1.163,0.517-1.989V100.453z"/>
	<path d="M338.042,103.973c-0.859,0-1.573-0.317-2.143-0.952s-0.854-1.438-0.854-2.412v-0.349c0-0.982,0.282-1.796,0.848-2.444
		c0.564-0.647,1.249-0.971,2.053-0.971c0.843,0,1.505,0.267,1.987,0.8s0.724,1.244,0.724,2.133v0.647h-4.85v0.184
		c0,0.773,0.205,1.419,0.615,1.938c0.411,0.52,0.95,0.779,1.619,0.779c0.474,0,0.878-0.065,1.213-0.196
		c0.334-0.132,0.619-0.32,0.856-0.565l0.323,0.521c-0.258,0.271-0.585,0.488-0.98,0.648S338.588,103.973,338.042,103.973z
		 M337.946,97.492c-0.562,0-1.034,0.214-1.415,0.643s-0.603,0.965-0.667,1.611l0.014,0.032h4.023v-0.19
		c0-0.595-0.175-1.093-0.526-1.494S338.548,97.492,337.946,97.492z"/>
	<path d="M344.708,103.325c0.503,0,0.947-0.144,1.332-0.431c0.386-0.286,0.578-0.684,0.578-1.194h0.673l0.013,0.038
		c0.021,0.635-0.232,1.166-0.762,1.594c-0.529,0.427-1.141,0.641-1.834,0.641c-0.936,0-1.658-0.32-2.168-0.961
		c-0.51-0.643-0.766-1.466-0.766-2.473v-0.267c0-0.999,0.257-1.82,0.769-2.463s1.231-0.965,2.158-0.965
		c0.753,0,1.381,0.222,1.882,0.667c0.502,0.444,0.744,1.028,0.727,1.752l-0.012,0.038h-0.68c0-0.55-0.186-0.989-0.556-1.317
		c-0.37-0.328-0.824-0.492-1.361-0.492c-0.736,0-1.281,0.263-1.635,0.79s-0.53,1.189-0.53,1.988v0.266
		c0,0.812,0.176,1.479,0.527,2.004C343.415,103.062,343.963,103.325,344.708,103.325z"/>
	<path d="M350.09,95.213v1.758h1.511v0.622h-1.511v4.475c0,0.449,0.081,0.768,0.244,0.955c0.163,0.188,0.38,0.283,0.651,0.283
		c0.122,0,0.242-0.006,0.358-0.016c0.116-0.012,0.251-0.029,0.403-0.055l0.113,0.564c-0.127,0.055-0.281,0.098-0.463,0.127
		s-0.364,0.045-0.546,0.045c-0.482,0-0.858-0.152-1.127-0.457s-0.403-0.787-0.403-1.447v-4.475h-1.187v-0.622h1.187v-1.758H350.09z"
		/>
	<path d="M356.374,97.625l-0.564-0.038c-0.479,0-0.871,0.134-1.178,0.403c-0.307,0.269-0.526,0.638-0.657,1.108v4.742h-0.762v-6.869
		h0.667l0.095,1.143v0.076c0.199-0.423,0.466-0.753,0.8-0.99s0.732-0.355,1.193-0.355c0.098,0,0.191,0.007,0.282,0.022
		c0.091,0.015,0.166,0.03,0.226,0.047L356.374,97.625z"/>
	<path d="M362.138,102.716c-0.221,0.401-0.517,0.712-0.889,0.931c-0.373,0.217-0.812,0.326-1.32,0.326
		c-0.725,0-1.291-0.246-1.701-0.736c-0.411-0.49-0.616-1.252-0.616-2.285v-3.98h0.762v4c0,0.84,0.143,1.442,0.429,1.807
		c0.285,0.364,0.69,0.547,1.215,0.547c0.576,0,1.035-0.13,1.378-0.388c0.343-0.259,0.582-0.615,0.718-1.068v-4.898h0.762v6.869
		H362.2L362.138,102.716z"/>
	<path d="M365.515,96.971l0.069,1.136c0.22-0.402,0.513-0.713,0.879-0.933s0.804-0.33,1.312-0.33c0.524,0,0.963,0.127,1.316,0.381
		s0.606,0.641,0.759,1.162c0.207-0.482,0.503-0.86,0.886-1.133c0.383-0.272,0.85-0.409,1.399-0.409c0.732,0,1.297,0.243,1.694,0.73
		c0.398,0.487,0.598,1.24,0.598,2.26v4.006h-0.762v-4.026c0-0.848-0.149-1.447-0.448-1.797c-0.298-0.35-0.714-0.525-1.247-0.525
		c-0.588,0-1.043,0.185-1.365,0.553c-0.321,0.369-0.52,0.842-0.596,1.418c0,0.03,0.001,0.072,0.003,0.127s0.003,0.095,0.003,0.121
		v4.128h-0.768v-4.026c0-0.831-0.151-1.426-0.454-1.784s-0.719-0.538-1.247-0.538c-0.538,0-0.964,0.137-1.279,0.41
		c-0.315,0.274-0.537,0.642-0.664,1.104v4.834h-0.768v-6.869H365.515z"/>
	<path d="M380.502,99.663v4.177h-0.756v-9.236h3.129c0.99,0,1.75,0.217,2.279,0.651c0.529,0.434,0.793,1.067,0.793,1.901
		c0,0.491-0.142,0.93-0.425,1.317c-0.283,0.388-0.684,0.67-1.2,0.848c0.572,0.144,0.983,0.401,1.235,0.771
		c0.252,0.37,0.378,0.834,0.378,1.393v0.869c0,0.288,0.033,0.547,0.102,0.775c0.067,0.229,0.18,0.414,0.336,0.559v0.152h-0.774
		c-0.156-0.152-0.267-0.367-0.33-0.642s-0.095-0.561-0.095-0.856v-0.845c0-0.567-0.184-1.015-0.55-1.342
		c-0.366-0.328-0.877-0.492-1.532-0.492H380.502z M380.502,99.015h2.278c0.834,0,1.443-0.168,1.828-0.505
		c0.385-0.336,0.577-0.79,0.577-1.361c0-0.609-0.191-1.078-0.574-1.406c-0.383-0.328-0.961-0.492-1.736-0.492h-2.373V99.015z"/>
	<path d="M390.689,103.973c-0.859,0-1.573-0.317-2.143-0.952s-0.854-1.438-0.854-2.412v-0.349c0-0.982,0.282-1.796,0.848-2.444
		c0.564-0.647,1.249-0.971,2.053-0.971c0.843,0,1.505,0.267,1.987,0.8s0.724,1.244,0.724,2.133v0.647h-4.85v0.184
		c0,0.773,0.205,1.419,0.615,1.938c0.411,0.52,0.95,0.779,1.619,0.779c0.474,0,0.878-0.065,1.213-0.196
		c0.334-0.132,0.619-0.32,0.856-0.565l0.323,0.521c-0.258,0.271-0.585,0.488-0.98,0.648S391.235,103.973,390.689,103.973z
		 M390.594,97.492c-0.562,0-1.034,0.214-1.415,0.643s-0.603,0.965-0.667,1.611l0.014,0.032h4.023v-0.19
		c0-0.595-0.175-1.093-0.526-1.494S391.195,97.492,390.594,97.492z"/>
	<path d="M400.337,100.596c0,1.028-0.232,1.848-0.697,2.459c-0.466,0.612-1.107,0.918-1.924,0.918c-0.482,0-0.904-0.092-1.267-0.273
		c-0.361-0.182-0.657-0.441-0.886-0.78v3.562h-0.762v-9.509h0.642l0.095,1.066c0.229-0.381,0.524-0.675,0.886-0.882
		c0.362-0.208,0.788-0.311,1.279-0.311c0.825,0,1.471,0.329,1.937,0.987c0.465,0.658,0.697,1.535,0.697,2.631V100.596z
		 M399.575,100.453c0-0.873-0.173-1.584-0.52-2.135c-0.348-0.551-0.855-0.826-1.523-0.826c-0.513,0-0.929,0.122-1.248,0.365
		s-0.56,0.561-0.721,0.95v3.304c0.174,0.377,0.425,0.674,0.753,0.89s0.737,0.324,1.228,0.324c0.665,0,1.17-0.25,1.515-0.75
		c0.345-0.499,0.517-1.163,0.517-1.989V100.453z"/>
	<path d="M401.62,100.304c0-1.011,0.276-1.841,0.831-2.488s1.288-0.971,2.202-0.971c0.919,0,1.655,0.324,2.209,0.971
		c0.555,0.647,0.832,1.477,0.832,2.488v0.209c0,1.016-0.276,1.846-0.828,2.491c-0.553,0.646-1.285,0.969-2.199,0.969
		c-0.923,0-1.661-0.322-2.216-0.969c-0.555-0.645-0.831-1.475-0.831-2.491V100.304z M402.382,100.51c0,0.795,0.2,1.463,0.603,2.004
		s0.963,0.812,1.683,0.812c0.706,0,1.262-0.271,1.666-0.812s0.605-1.209,0.605-2.004v-0.209c0-0.782-0.203-1.446-0.609-1.991
		s-0.965-0.818-1.676-0.818s-1.267,0.272-1.669,0.818s-0.603,1.209-0.603,1.991V100.51z"/>
	<path d="M413.395,102.09c0-0.32-0.132-0.602-0.396-0.842s-0.742-0.437-1.432-0.589c-0.821-0.178-1.427-0.413-1.818-0.705
		s-0.587-0.705-0.587-1.238c0-0.525,0.221-0.968,0.663-1.33c0.442-0.362,1.027-0.543,1.755-0.543c0.774,0,1.388,0.191,1.841,0.574
		c0.453,0.383,0.669,0.862,0.647,1.438l-0.013,0.038h-0.704c0-0.376-0.16-0.705-0.479-0.984s-0.75-0.419-1.292-0.419
		c-0.555,0-0.97,0.119-1.247,0.357s-0.416,0.517-0.416,0.837c0,0.315,0.119,0.577,0.358,0.783c0.239,0.206,0.717,0.387,1.432,0.543
		c0.816,0.183,1.428,0.432,1.834,0.749c0.406,0.316,0.609,0.746,0.609,1.289c0,0.574-0.231,1.037-0.694,1.393
		c-0.464,0.354-1.076,0.531-1.838,0.531c-0.834,0-1.488-0.199-1.965-0.597c-0.476-0.397-0.701-0.872-0.676-1.422l0.013-0.038h0.698
		c0.029,0.493,0.231,0.852,0.606,1.074c0.374,0.223,0.815,0.335,1.323,0.335c0.55,0,0.983-0.12,1.302-0.36
		C413.235,102.724,413.395,102.432,413.395,102.09z"/>
	<path d="M416.753,95.003h-0.756v-1.066h0.756V95.003z M416.753,103.84h-0.756v-6.869h0.756V103.84z"/>
	<path d="M420.047,95.213v1.758h1.511v0.622h-1.511v4.475c0,0.449,0.081,0.768,0.244,0.955c0.163,0.188,0.38,0.283,0.651,0.283
		c0.122,0,0.242-0.006,0.358-0.016c0.116-0.012,0.251-0.029,0.403-0.055l0.113,0.564c-0.127,0.055-0.281,0.098-0.463,0.127
		s-0.364,0.045-0.546,0.045c-0.482,0-0.858-0.152-1.127-0.457s-0.403-0.787-0.403-1.447v-4.475h-1.187v-0.622h1.187v-1.758H420.047z
		"/>
	<path d="M422.618,100.304c0-1.011,0.276-1.841,0.831-2.488s1.288-0.971,2.202-0.971c0.919,0,1.655,0.324,2.209,0.971
		c0.555,0.647,0.832,1.477,0.832,2.488v0.209c0,1.016-0.276,1.846-0.828,2.491c-0.553,0.646-1.285,0.969-2.199,0.969
		c-0.923,0-1.661-0.322-2.216-0.969c-0.555-0.645-0.831-1.475-0.831-2.491V100.304z M423.38,100.51c0,0.795,0.2,1.463,0.603,2.004
		s0.963,0.812,1.683,0.812c0.706,0,1.262-0.271,1.666-0.812s0.605-1.209,0.605-2.004v-0.209c0-0.782-0.203-1.446-0.609-1.991
		s-0.965-0.818-1.676-0.818s-1.267,0.272-1.669,0.818s-0.603,1.209-0.603,1.991V100.51z"/>
	<path d="M433.44,97.625l-0.564-0.038c-0.479,0-0.871,0.134-1.178,0.403c-0.307,0.269-0.526,0.638-0.657,1.108v4.742h-0.762v-6.869
		h0.667l0.095,1.143v0.076c0.199-0.423,0.466-0.753,0.8-0.99s0.732-0.355,1.193-0.355c0.098,0,0.191,0.007,0.282,0.022
		c0.091,0.015,0.166,0.03,0.226,0.047L433.44,97.625z"/>
	<path d="M436.766,101.979l0.242,0.819h0.037l2.076-5.828h0.851l-2.983,7.966c-0.178,0.465-0.408,0.861-0.691,1.188
		c-0.284,0.326-0.699,0.488-1.244,0.488c-0.09,0-0.197-0.01-0.324-0.029c-0.127-0.018-0.22-0.039-0.279-0.059l0.089-0.635
		c0.051,0.008,0.132,0.018,0.244,0.027c0.112,0.012,0.194,0.016,0.245,0.016c0.33,0,0.594-0.117,0.793-0.352
		s0.368-0.537,0.508-0.904l0.361-0.928l-2.652-6.779h0.844L436.766,101.979z"/>
</g>
<path fill="none" stroke="#A21E16" stroke-width="2" stroke-miterlimit="10" d="M8.975,149.924c1.525,0,1.616-2.979,2.292-11.534
	c1.24-15.707,2.823-29.341,6.208-30.993c8.078-3.943,7.332-61.687,15-62c2.661-0.109,2.328,10.391,7,10c10.641-0.891,5.828-46,17-46
	c13.494,0,19.328,93.557,34,93c15.201-0.578,13.761-15.041,22.001-15c11.465,0.056,11.581,61.37,73.898,66.669
	c1.971,0.167,258.765-1.117,260.862-1.065"/>
<path fill="none" stroke="#B96716" stroke-width="2" stroke-miterlimit="10" d="M8.975,149.924
	c25.75-0.079,40.003,0.77,48.775,0.326c10.484-0.53,12.811-2.435,13.078-3.542c2.767-11.43,2.056-49.396,6.146-49.267
	c4.819,0.153,1.181,40.096,7,39.834s0.843-123.072,8-123.072c3.153,0,5,28.631,7,28.631s2-1.867,4-1.245s1.006,10.122,7,9.958
	c1.978-0.054,2.851-1.033,4-1.245c3.366-0.621,7.181,5.241,13,14.938s2.847,62.503,18,62.864c15.153,0.36,12.514-10.482,27-10.54
	c16.525-0.065,14.399,36.5,61.693,36.515c29.6,0.009,53.017-2.192,213.568-1.08"/>
</svg>
